<?xml version="1.0" encoding="UTF-8"?>
<svg xmlns="http://www.w3.org/2000/svg" xmlns:xlink="http://www.w3.org/1999/xlink" width="100px" height="100px" viewBox="0 0 100 100" version="1.1">
<g id="surface1">
<rect x="0" y="0" width="100" height="100" style="fill:rgb(100%,100%,100%);fill-opacity:1;stroke:none;"/>
<path style=" stroke:none;fill-rule:evenodd;fill:rgb(21.568627%,38.823529%,33.333333%);fill-opacity:1;" d="M 78.148438 38.316406 L 85.78125 38.316406 L 84.878906 42.753906 C 87.210938 39.105469 89.882812 38.054688 93.152344 37.828125 C 94.28125 37.792969 95.671875 37.941406 96.914062 38.128906 L 95.445312 43.960938 C 94.242188 43.660156 92.964844 43.433594 91.835938 43.433594 C 87.324219 43.359375 83.976562 46.402344 82.8125 50.765625 L 80.179688 60.769531 L 72.28125 60.769531 C 74.234375 53.285156 76.832031 45.125 78.148438 38.316406 Z M 78.148438 38.316406 "/>
<path style=" stroke:none;fill-rule:evenodd;fill:rgb(21.568627%,38.823529%,33.333333%);fill-opacity:1;" d="M 56.441406 48.289062 C 57.757812 47.652344 62.347656 47.71875 65.316406 47.34375 C 68.738281 46.929688 73.515625 45.050781 73.402344 42.191406 C 73.214844 39.144531 70.507812 38.453125 67.988281 38.792969 C 62.046875 39.660156 58.171875 43.550781 56.441406 48.289062 Z M 55.707031 50.234375 C 55.554688 51.546875 55.390625 52.949219 55.5 54 C 55.988281 57.722656 59.253906 59.464844 62.75 59.578125 C 65.664062 59.648438 69.214844 57.90625 71.144531 55.734375 C 71.511719 55.324219 71.929688 55.457031 72.179688 55.785156 C 72.367188 56.035156 72.292969 56.601562 72.117188 56.773438 C 69.085938 59.785156 65.96875 61.484375 61.632812 61.519531 C 56.707031 61.558594 50.535156 59.679688 49.785156 54.566406 C 49.671875 53.964844 49.671875 53.285156 49.746094 52.570312 C 50.726562 43.097656 59.375 37.980469 67.875 37.527344 C 71.933594 37.300781 77.804688 38.355469 77.464844 42.757812 C 77.125 47.382812 70.128906 49 65.582031 49.113281 C 61.746094 49.222656 57.023438 49.207031 55.707031 50.234375 Z M 55.707031 50.234375 "/>
<path style=" stroke:none;fill-rule:evenodd;fill:rgb(21.568627%,38.823529%,33.333333%);fill-opacity:1;" d="M 51.464844 55.582031 L 50.1875 60.46875 C 48.042969 60.921875 45.257812 61.335938 42.699219 61.261719 C 35.101562 61.109375 29.539062 57.609375 29.875 50.390625 C 30.289062 42.082031 38.527344 37.832031 46.460938 37.71875 C 49.09375 37.71875 51.5 37.980469 54.171875 38.621094 L 51.800781 43.320312 C 50.070312 42.832031 47.738281 42.378906 45.40625 42.605469 C 41.761719 42.867188 38.414062 44.824219 37.433594 48.660156 C 36.15625 53.472656 38.9375 56.859375 43.867188 56.859375 C 46.460938 56.859375 48.980469 56.335938 51.464844 55.582031 Z M 51.464844 55.582031 "/>
<path style=" stroke:none;fill-rule:evenodd;fill:rgb(21.568627%,38.823529%,33.333333%);fill-opacity:1;" d="M 19.34375 37.792969 C 25.703125 37.792969 30.488281 39.25 30.945312 44.527344 C 31.121094 46.558594 30.382812 48.371094 29.816406 50.511719 L 27.167969 60.808594 C 22.089844 60.808594 17.953125 60.921875 13.367188 61.296875 C 9.117188 61.296875 4.039062 60.394531 4.039062 54.980469 C 4.128906 46.128906 17.839844 46.929688 23.671875 46.929688 C 24.910156 43.394531 22.015625 41.964844 17.953125 41.964844 C 14.269531 41.964844 11.234375 43.019531 8.261719 43.996094 L 9.304688 39.21875 C 12.199219 38.28125 15.921875 37.792969 19.34375 37.792969 Z M 22.804688 50.464844 C 19.601562 50.464844 10.554688 49.710938 10.554688 54.601562 C 10.554688 57.046875 13.109375 57.410156 15.253906 57.410156 C 20.886719 57.410156 21.765625 55.445312 22.804688 50.464844 Z M 94.257812 56.21875 C 93.441406 56.214844 92.65625 56.539062 92.078125 57.121094 C 91.480469 57.761719 91.140625 58.550781 91.140625 59.378906 C 91.140625 60.207031 91.480469 60.957031 92.042969 61.558594 C 92.644531 62.160156 93.433594 62.5 94.257812 62.5 C 95.085938 62.5 95.878906 62.160156 96.480469 61.558594 C 97.082031 60.957031 97.382812 60.207031 97.382812 59.378906 C 97.382812 58.515625 97.082031 57.726562 96.480469 57.160156 C 95.878906 56.558594 95.085938 56.21875 94.257812 56.21875 Z M 97.082031 59.378906 C 97.082031 60.128906 96.78125 60.808594 96.253906 61.332031 C 95.722656 61.859375 95.007812 62.15625 94.257812 62.160156 C 93.511719 62.160156 92.796875 61.863281 92.265625 61.332031 C 91.742188 60.808594 91.441406 60.09375 91.441406 59.378906 C 91.441406 58.628906 91.742188 57.910156 92.265625 57.347656 C 92.796875 56.820312 93.511719 56.523438 94.257812 56.519531 C 95.011719 56.519531 95.730469 56.820312 96.253906 57.386719 C 96.78125 57.910156 97.082031 58.589844 97.082031 59.378906 Z M 94.335938 57.496094 L 93.058594 57.496094 L 93.058594 61.109375 L 93.546875 61.109375 L 93.546875 59.492188 L 94.449219 59.492188 L 95.238281 61.109375 L 95.804688 61.109375 L 94.976562 59.457031 C 95.503906 59.378906 95.839844 59 95.839844 58.515625 C 95.839844 57.800781 95.351562 57.496094 94.335938 57.496094 Z M 94.257812 57.835938 C 94.976562 57.835938 95.351562 58.023438 95.351562 58.476562 C 95.351562 59.039062 95.011719 59.191406 94.257812 59.191406 L 93.546875 59.191406 L 93.546875 57.835938 Z M 94.257812 57.835938 "/>
</g>
</svg>
