<?xml version="1.0" encoding="UTF-8"?>
<svg xmlns="http://www.w3.org/2000/svg" xmlns:xlink="http://www.w3.org/1999/xlink" width="100px" height="100px" viewBox="0 0 100 100" version="1.1">
<g id="surface1">
<rect x="0" y="0" width="100" height="100" style="fill:rgb(100%,100%,100%);fill-opacity:1;stroke:none;"/>
<path style=" stroke:none;fill-rule:evenodd;fill:rgb(0%,0%,0%);fill-opacity:1;" d="M 96.253906 40.6875 C 96.632812 40.6875 97.007812 40.785156 97.375 40.980469 C 97.734375 41.171875 98.027344 41.464844 98.226562 41.824219 C 98.425781 42.1875 98.53125 42.570312 98.53125 42.964844 C 98.53125 43.359375 98.429688 43.738281 98.230469 44.097656 C 98.035156 44.453125 97.742188 44.746094 97.386719 44.941406 C 97.042969 45.140625 96.652344 45.242188 96.253906 45.242188 C 95.855469 45.242188 95.464844 45.140625 95.117188 44.941406 C 94.761719 44.746094 94.46875 44.453125 94.273438 44.097656 C 94.078125 43.753906 93.972656 43.363281 93.972656 42.964844 C 93.972656 42.570312 94.074219 42.1875 94.277344 41.824219 C 94.476562 41.464844 94.773438 41.171875 95.132812 40.980469 C 95.476562 40.789062 95.859375 40.691406 96.253906 40.6875 Z M 96.253906 41.0625 C 95.933594 41.0625 95.621094 41.148438 95.320312 41.3125 C 95.015625 41.476562 94.777344 41.710938 94.605469 42.015625 C 94.4375 42.320312 94.351562 42.636719 94.351562 42.964844 C 94.351562 43.292969 94.433594 43.609375 94.601562 43.910156 C 94.769531 44.210938 95.003906 44.445312 95.308594 44.613281 C 95.59375 44.777344 95.921875 44.863281 96.253906 44.867188 C 96.582031 44.863281 96.910156 44.777344 97.199219 44.613281 C 97.492188 44.449219 97.738281 44.207031 97.898438 43.910156 C 98.066406 43.609375 98.148438 43.292969 98.148438 42.964844 C 98.148438 42.636719 98.066406 42.316406 97.894531 42.015625 C 97.726562 41.710938 97.488281 41.476562 97.183594 41.3125 C 96.878906 41.148438 96.570312 41.0625 96.253906 41.0625 Z M 95.253906 44.226562 L 95.253906 41.773438 L 96.09375 41.773438 C 96.382812 41.773438 96.59375 41.796875 96.722656 41.839844 C 96.847656 41.886719 96.953125 41.964844 97.027344 42.078125 C 97.105469 42.191406 97.144531 42.3125 97.144531 42.4375 C 97.144531 42.617188 97.078125 42.773438 96.953125 42.90625 C 96.824219 43.039062 96.65625 43.113281 96.441406 43.128906 C 96.53125 43.164062 96.601562 43.207031 96.652344 43.257812 C 96.75 43.355469 96.871094 43.519531 97.015625 43.746094 L 97.3125 44.226562 L 96.828125 44.226562 L 96.609375 43.839844 C 96.441406 43.535156 96.304688 43.34375 96.199219 43.269531 C 96.125 43.210938 96.019531 43.183594 95.878906 43.183594 L 95.648438 43.183594 L 95.648438 44.226562 Z M 95.648438 42.847656 L 96.128906 42.847656 C 96.359375 42.847656 96.515625 42.8125 96.597656 42.742188 C 96.679688 42.675781 96.726562 42.578125 96.722656 42.472656 C 96.722656 42.402344 96.703125 42.332031 96.664062 42.277344 C 96.621094 42.21875 96.5625 42.175781 96.496094 42.148438 C 96.425781 42.121094 96.292969 42.105469 96.097656 42.105469 L 95.648438 42.105469 Z M 52.328125 40.539062 L 52.402344 40.539062 L 52.402344 45.773438 L 47.113281 45.773438 L 47.113281 40.539062 Z M 29.296875 51.613281 L 41.535156 52.371094 C 42.046875 52.371094 42.460938 52.789062 42.460938 53.296875 C 42.460938 53.804688 42.046875 54.222656 41.535156 54.222656 L 24.09375 54.222656 L 24.09375 47.40625 C 24.628906 49.507812 26.476562 51.230469 29.296875 51.613281 Z M 24.09375 59.488281 L 41.925781 59.488281 C 44.523438 59.488281 46.707031 57.613281 47.1875 55.148438 C 47.613281 57.605469 49.761719 59.488281 52.328125 59.488281 L 63.722656 59.488281 C 66.265625 59.488281 68.402344 57.636719 68.851562 55.210938 L 68.851562 59.488281 L 87.117188 59.488281 C 90.066406 59.488281 92.476562 57.078125 92.476562 54.128906 L 92.476562 53.367188 C 92.476562 50.417969 90.066406 48.007812 87.117188 48.007812 L 86.113281 47.964844 C 80.429688 47.714844 74.765625 47.425781 69.089844 47.132812 C 69.53125 49.359375 71.410156 51.214844 74.355469 51.613281 L 86.726562 52.371094 C 87.238281 52.375 87.652344 52.785156 87.652344 53.296875 C 87.652344 53.808594 87.238281 54.222656 86.726562 54.222656 L 68.9375 54.222656 L 68.9375 47.125 L 63.644531 46.851562 L 63.644531 52.921875 C 63.644531 53.773438 62.953125 54.464844 62.101562 54.46875 L 53.949219 54.46875 C 53.097656 54.464844 52.40625 53.773438 52.402344 52.921875 L 52.402344 46.273438 L 47.113281 46 L 47.113281 52.015625 C 46.507812 49.742188 44.40625 48.101562 41.925781 48.101562 L 18.621094 46.578125 L 18.621094 59.492188 L 24.09375 59.492188 Z M 46.269531 45.777344 L 46.269531 40.511719 L 29.296875 40.511719 C 26.792969 40.511719 24.675781 42.253906 24.09375 44.585938 L 24.09375 40.535156 L 13.960938 40.535156 L 10.511719 45.773438 L 23.9375 45.773438 Z M 16.386719 46.445312 L 8.015625 59.488281 L 1.46875 59.488281 L 10.300781 46.09375 Z M 92.476562 45.777344 L 92.476562 40.511719 L 74.351562 40.511719 C 71.4375 40.511719 69.046875 42.871094 68.992188 45.773438 Z M 63.644531 45.773438 L 63.644531 40.539062 L 68.9375 40.539062 L 68.9375 45.773438 Z M 63.644531 45.773438 "/>
</g>
</svg>
