<?xml version="1.0" encoding="UTF-8"?>
<svg xmlns="http://www.w3.org/2000/svg" xmlns:xlink="http://www.w3.org/1999/xlink" width="100px" height="100px" viewBox="0 0 100 99" version="1.1">
<g id="surface1">
<path style=" stroke:none;fill-rule:nonzero;fill:rgb(0%,51.372549%,79.215686%);fill-opacity:1;" d="M 48.449219 0 L 51.550781 0 C 66.625 0.84375 77.375 6.53125 85.34375 14.496094 C 93.3125 22.464844 99.203125 32.972656 99.988281 48.011719 L 99.988281 50.988281 C 99.222656 66.265625 93.230469 76.347656 85.34375 84.550781 C 77.058594 92.34375 66.875 98.25 51.5 99 L 48.449219 99 C 33.375 98.152344 22.625 92.46875 14.65625 84.503906 C 6.6875 76.535156 0.796875 66.027344 0.0117188 50.988281 L 0.0117188 48.011719 C 0.0507812 48 0.0703125 47.96875 0.0585938 47.910156 C 0.8125 32.933594 6.738281 22.3125 14.65625 14.449219 C 22.613281 6.546875 33.472656 0.820312 48.449219 0 Z M 38.652344 7.101562 C 35.683594 7.890625 33.019531 8.894531 30.605469 10.078125 C 23.253906 13.6875 17.195312 18.851562 12.957031 25.46875 C 8.820312 31.929688 5.242188 40.242188 5.757812 51.136719 C 6.085938 58.007812 7.664062 63.789062 10.15625 68.714844 C 15.082031 78.441406 22.578125 85.609375 32.953125 89.964844 C 38.082031 92.117188 44.441406 93.628906 51.601562 93.289062 C 58.464844 92.964844 64.417969 91.433594 69.347656 88.972656 C 79.007812 84.144531 86.621094 76.703125 90.84375 66.429688 C 92.976562 61.234375 94.589844 55.230469 94.242188 47.960938 C 93.582031 34.1875 87.941406 24.847656 80.496094 17.722656 C 76.8125 14.199219 72.375 11.203125 67.148438 9.035156 C 62.074219 6.933594 55.472656 5.375 48.402344 5.710938 C 44.925781 5.875 41.644531 6.304688 38.652344 7.101562 Z M 38.652344 7.101562 "/>
<path style=" stroke:none;fill-rule:nonzero;fill:rgb(0%,51.372549%,79.215686%);fill-opacity:1;" d="M 45.402344 36.640625 C 46.984375 37.683594 48.605469 38.6875 50.101562 39.820312 C 46.722656 41.925781 43.410156 44.097656 40.050781 46.222656 C 40.5625 46.609375 41.140625 46.929688 41.652344 47.316406 C 45.039062 45.183594 48.425781 43.054688 51.800781 40.910156 C 53.3125 41.839844 54.804688 42.792969 56.199219 43.839844 C 52.820312 45.960938 49.550781 48.195312 46.203125 50.34375 C 46.699219 50.746094 47.304688 51.035156 47.851562 51.386719 C 51.3125 49.28125 54.691406 47.089844 58.097656 44.933594 L 58.097656 37.882812 L 65.597656 37.882812 L 65.597656 51.933594 C 67.714844 52.046875 70.046875 51.949219 72.246094 51.980469 L 72.246094 58.585938 L 58.097656 58.585938 L 58.097656 51.882812 C 53.941406 54.390625 49.683594 57.226562 45.5 59.875 C 41.148438 57.070312 36.949219 54.101562 32.605469 51.289062 C 31.34375 55.25 28.355469 58.234375 23.40625 58.585938 C 20.320312 58.804688 16.8125 58.421875 13.257812 58.585938 L 13.257812 37.882812 C 17.703125 38.175781 22.582031 37.292969 26.105469 38.378906 C 29.21875 39.339844 31.429688 41.808594 32.453125 44.882812 C 36.804688 42.167969 41.082031 39.386719 45.402344 36.640625 Z M 20.40625 44.535156 L 20.40625 51.980469 C 22.191406 51.992188 23.550781 52.09375 24.605469 51.289062 C 26.171875 50.085938 26.488281 47.113281 25.105469 45.527344 C 24.179688 44.46875 22.621094 44.25 20.457031 44.386719 C 20.398438 44.394531 20.402344 44.464844 20.40625 44.535156 Z M 74.195312 37.882812 L 81.695312 37.882812 L 81.695312 51.980469 L 88.292969 51.980469 L 88.292969 58.585938 L 74.144531 58.585938 L 74.144531 38.03125 C 74.140625 37.960938 74.136719 37.890625 74.195312 37.882812 Z M 74.195312 37.882812 "/>
</g>
</svg>
