<?xml version="1.0" encoding="UTF-8"?>
<svg xmlns="http://www.w3.org/2000/svg" xmlns:xlink="http://www.w3.org/1999/xlink" width="100px" height="100px" viewBox="0 0 100 100" version="1.1">
<g id="surface1">
<path style=" stroke:none;fill-rule:nonzero;fill:rgb(100%,100%,100%);fill-opacity:1;" d="M 15 0 L 85 0 C 93.285156 0 100 6.714844 100 15 L 100 85 C 100 93.285156 93.285156 100 85 100 L 15 100 C 6.714844 100 0 93.285156 0 85 L 0 15 C 0 6.714844 6.714844 0 15 0 Z M 15 0 "/>
<path style=" stroke:none;fill-rule:nonzero;fill:rgb(0%,58.823529%,83.921569%);fill-opacity:1;" d="M 50 12.5 C 49.433594 12.5 48.867188 12.5 48.320312 12.539062 L 40.644531 33.632812 L 47.324219 33.632812 C 51.289062 33.632812 53.4375 36.679688 52.070312 40.429688 L 42.617188 66.40625 L 34.667969 66.40625 L 44.824219 38.554688 L 38.867188 38.554688 L 28.710938 66.40625 L 20.78125 66.40625 L 32.695312 33.59375 L 39.902344 13.867188 C 23.4375 18.46875 12.167969 33.617188 12.5 50.710938 C 12.832031 67.800781 24.679688 82.507812 41.308594 86.464844 L 48.28125 67.324219 L 60.546875 33.59375 L 75.195312 33.59375 C 79.160156 33.59375 81.308594 36.660156 79.941406 40.410156 L 71.640625 63.242188 C 70.867188 65.082031 69.105469 66.3125 67.109375 66.40625 L 56.5625 66.40625 L 48.90625 87.460938 L 50.019531 87.480469 C 70.730469 87.480469 87.519531 70.691406 87.519531 49.980469 C 87.519531 29.269531 70.730469 12.480469 50.019531 12.480469 Z M 66.71875 38.535156 L 58.359375 61.464844 L 64.335938 61.464844 L 72.695312 38.535156 Z M 66.71875 38.535156 "/>
</g>
</svg>
