<?xml version="1.0" encoding="UTF-8"?>
<svg xmlns="http://www.w3.org/2000/svg" xmlns:xlink="http://www.w3.org/1999/xlink" width="100px" height="33px" viewBox="0 0 99 33" version="1.1">
<g id="surface1">
<path style=" stroke:none;fill-rule:nonzero;fill:rgb(41.176471%,70.588235%,5.882353%);fill-opacity:1;" d="M 90.765625 27.890625 C 85.527344 27.925781 80.566406 27.96875 79.183594 27.84375 C 76.386719 27.601562 74.515625 25.761719 74.300781 23.058594 C 74.152344 21.28125 74.152344 19.8125 74.289062 18.414062 C 74.546875 15.78125 76.738281 13.269531 79.183594 13.152344 C 80.058594 13.105469 82.40625 13.109375 86.648438 13.125 L 99 13.152344 L 99 8.007812 C 99 8.007812 89.160156 7.996094 86.203125 7.984375 C 82.234375 7.964844 80.234375 7.964844 78.96875 8.007812 C 76.1875 8.113281 73.851562 9.109375 72.039062 10.960938 C 70.320312 12.703125 69.296875 15.484375 69.144531 18.296875 C 69.058594 19.8125 69.03125 21.796875 69.144531 22.972656 C 69.429688 25.996094 70.40625 28.371094 72.039062 30.035156 C 73.785156 31.820312 76.445312 32.949219 78.972656 32.988281 C 81.046875 33.011719 99 32.988281 99 32.988281 L 99 27.84375 C 99 27.84375 93.546875 27.867188 90.765625 27.890625 Z M 35.007812 8.28125 L 35.007812 13.421875 L 47.195312 13.421875 L 47.195312 32.894531 L 52.339844 32.894531 L 52.339844 13.421875 L 64.527344 13.421875 L 64.527344 8.28125 Z M 29.664062 18 C 29.628906 15.234375 28.65625 12.859375 26.769531 10.9375 C 24.804688 8.929688 21.804688 8.097656 19.839844 7.992188 C 18.132812 7.894531 11.402344 7.925781 9.824219 7.992188 C 7.597656 8.085938 5.976562 8.753906 5.164062 9.359375 C 5.15625 9.367188 5.148438 9.363281 5.148438 9.351562 L 5.148438 0.00390625 L 0 0.00390625 L 0 32.988281 L 5.136719 32.988281 C 5.136719 32.988281 5.039062 19.484375 5.152344 18.015625 C 5.355469 15.402344 7.332031 13.347656 9.847656 13.128906 C 11.867188 12.953125 17.929688 13 19.828125 13.132812 C 22.4375 13.3125 24.367188 15.359375 24.519531 18.121094 C 24.566406 19.132812 24.515625 32.988281 24.515625 32.988281 L 29.664062 32.988281 C 29.664062 32.988281 29.679688 19.1875 29.664062 18 Z M 29.664062 18 "/>
</g>
</svg>
