<?xml version="1.0" encoding="UTF-8"?>
<svg xmlns="http://www.w3.org/2000/svg" xmlns:xlink="http://www.w3.org/1999/xlink" width="100px" height="15px" viewBox="0 0 102 15" version="1.1">
<g id="surface1">
<path style=" stroke:none;fill-rule:nonzero;fill:rgb(0%,36.862745%,61.568627%);fill-opacity:1;" d="M 101.972656 12.644531 L 101.972656 14.488281 L 101.664062 14.488281 L 101.664062 13.070312 L 101.644531 13.070312 L 101.132812 14.488281 L 100.867188 14.488281 L 100.363281 13.070312 L 100.363281 14.488281 L 100.050781 14.488281 L 100.050781 12.644531 L 100.515625 12.644531 L 101.023438 14.089844 L 101.507812 12.644531 L 101.972656 12.644531 M 99.851562 12.644531 L 99.851562 12.914062 L 99.253906 12.914062 L 99.253906 14.488281 L 98.949219 14.488281 L 98.949219 12.914062 L 98.351562 12.914062 L 98.351562 12.644531 L 99.851562 12.644531 M 92.144531 9.894531 C 92.609375 8.386719 92.609375 7.5 92.164062 6.921875 C 91.832031 6.519531 91.347656 6.320312 90.617188 6.320312 C 88.984375 6.320312 88.082031 7.253906 87.351562 9.585938 C 86.882812 11.117188 86.882812 12.003906 87.328125 12.578125 C 87.636719 12.960938 88.144531 13.160156 88.875 13.160156 C 90.484375 13.160156 91.414062 12.246094 92.144531 9.894531 Z M 98.527344 6.519531 C 99.164062 7.324219 99.300781 8.339844 98.925781 9.585938 C 97.863281 13.027344 93.867188 15 87.945312 15 C 84.410156 15 82.007812 14.308594 80.941406 12.980469 C 80.304688 12.179688 80.195312 11.140625 80.566406 9.894531 C 81.628906 6.453125 85.625 4.480469 91.546875 4.480469 C 95.058594 4.480469 97.488281 5.191406 98.527344 6.519531 M 76.4375 4.8125 L 82.710938 4.8125 C 82.332031 5.324219 75.511719 14.53125 75.398438 14.6875 L 65.769531 14.6875 C 65.722656 14.398438 64.574219 5.171875 64.53125 4.8125 L 70.429688 4.8125 C 70.472656 5.105469 71.289062 11.738281 71.289062 11.738281 C 71.289062 11.738281 76.347656 4.949219 76.4375 4.8125 M 56.976562 9.894531 C 57.4375 8.386719 57.460938 7.5 57 6.921875 C 56.6875 6.519531 56.179688 6.320312 55.476562 6.320312 C 53.839844 6.320312 52.910156 7.253906 52.207031 9.585938 C 51.71875 11.117188 51.71875 12.003906 52.183594 12.578125 C 52.492188 12.960938 53 13.160156 53.707031 13.160156 C 55.34375 13.160156 56.269531 12.246094 56.976562 9.894531 Z M 63.382812 6.519531 C 64.023438 7.324219 64.15625 8.339844 63.757812 9.585938 C 62.699219 13.027344 58.699219 15 52.800781 15 C 49.269531 15 46.859375 14.308594 45.796875 12.980469 C 45.15625 12.179688 45.023438 11.140625 45.398438 9.894531 C 46.480469 6.453125 50.480469 4.480469 56.378906 4.480469 C 59.914062 4.480469 62.320312 5.191406 63.382812 6.519531 M 44.914062 6.035156 C 45.15625 6.34375 45.289062 6.652344 45.222656 7.101562 L 42.773438 14.707031 L 36.277344 14.707031 L 38.578125 7.609375 C 38.664062 7.300781 38.554688 7.035156 38.378906 6.835938 C 38.066406 6.453125 37.402344 6.210938 35.128906 6.367188 C 35.128906 6.367188 32.4375 14.597656 32.390625 14.707031 L 25.898438 14.707031 C 25.960938 14.53125 28.945312 5.371094 28.988281 5.28125 C 31.242188 4.882812 34.222656 4.503906 37.316406 4.503906 C 41.515625 4.503906 44.074219 5.015625 44.914062 6.035156 M 21.214844 8.121094 C 21.347656 7.5 21.148438 7.035156 20.925781 6.769531 C 20.683594 6.453125 20.148438 6.054688 19.046875 6.054688 C 17.480469 6.054688 16.308594 6.8125 15.910156 8.074219 L 15.140625 10.984375 Z M 26.667969 8.097656 C 26.667969 8.5625 26.558594 8.964844 26.46875 9.140625 C 26.273438 9.1875 14.941406 11.714844 14.941406 11.714844 C 14.941406 11.714844 14.828125 12.269531 15.25 12.558594 C 15.800781 12.960938 16.398438 13.070312 17.410156 13.113281 C 19.910156 13.222656 23.289062 11.757812 24.238281 11.339844 C 24.085938 11.824219 23.113281 13.957031 23.070312 14.066406 C 22.648438 14.222656 20.304688 14.976562 15.710938 15 C 13.964844 15.023438 10.851562 14.800781 9.570312 13.179688 C 8.933594 12.378906 8.820312 11.25 9.261719 9.828125 C 10.300781 6.433594 14.1875 4.480469 19.886719 4.480469 C 23.070312 4.480469 25.144531 5.082031 26.097656 6.253906 C 26.46875 6.742188 26.667969 7.367188 26.667969 8.097656 M 4.558594 0 L 10.984375 0 C 10.855469 0.417969 6.523438 14.441406 6.453125 14.6875 L 0.03125 14.6875 C 0.160156 14.265625 4.492188 0.242188 4.558594 0 "/>
</g>
</svg>
