<?xml version="1.0" encoding="UTF-8"?>
<svg xmlns="http://www.w3.org/2000/svg" xmlns:xlink="http://www.w3.org/1999/xlink" width="100px" height="100px" viewBox="0 0 100 100" version="1.1">
<g id="surface1">
<rect x="0" y="0" width="100" height="100" style="fill:rgb(100%,100%,100%);fill-opacity:1;stroke:none;"/>
<path style=" stroke:none;fill-rule:evenodd;fill:rgb(65.490196%,4.313725%,32.156863%);fill-opacity:1;" d="M 27.484375 70.472656 C 38.792969 70.472656 47.960938 61.308594 47.960938 50 C 47.960938 38.691406 38.792969 29.527344 27.484375 29.527344 C 16.175781 29.527344 7.011719 38.691406 7.011719 50 C 7.011719 61.308594 16.175781 70.472656 27.484375 70.472656 Z M 27.484375 70.472656 "/>
<path style=" stroke:none;fill-rule:evenodd;fill:rgb(100%,100%,100%);fill-opacity:1;" d="M 32.46875 57.203125 L 28.230469 57.203125 L 28.230469 41.179688 L 26.65625 41.179688 L 26.65625 58.789062 L 28.230469 58.789062 L 28.230469 58.777344 L 32.46875 58.777344 Z M 32.46875 57.203125 "/>
<path style=" stroke:none;fill-rule:evenodd;fill:rgb(100%,100%,100%);fill-opacity:1;" d="M 43.054688 50.65625 L 32.496094 50.65625 L 32.496094 49.082031 L 44.601562 49.082031 C 44.617188 49.386719 44.625 49.691406 44.625 50 C 44.625 59.464844 36.949219 67.140625 27.484375 67.140625 C 18.019531 67.140625 10.34375 59.464844 10.34375 50 C 10.34375 40.535156 18.019531 32.859375 27.484375 32.859375 C 27.734375 32.859375 27.984375 32.867188 28.230469 32.875 L 28.230469 34.4375 C 27.980469 34.425781 27.734375 34.417969 27.484375 34.417969 C 18.878906 34.417969 11.902344 41.394531 11.902344 50 C 11.902344 58.605469 18.878906 65.582031 27.484375 65.582031 C 35.855469 65.582031 42.683594 58.980469 43.050781 50.699219 Z M 43.054688 50.65625 "/>
<path style=" stroke:none;fill-rule:evenodd;fill:rgb(100%,100%,100%);fill-opacity:1;" d="M 21.089844 45.925781 C 22.421875 45.925781 23.5 44.84375 23.5 43.515625 C 23.5 42.183594 22.421875 41.105469 21.089844 41.105469 C 19.761719 41.105469 18.683594 42.183594 18.683594 43.515625 C 18.683594 44.84375 19.761719 45.925781 21.089844 45.925781 Z M 21.089844 45.925781 "/>
<path style=" stroke:none;fill-rule:evenodd;fill:rgb(50.196078%,50.588235%,51.372549%);fill-opacity:1;" d="M 58.125 60.050781 L 72.757812 60.050781 L 72.757812 55.632812 L 63.5 55.632812 L 63.5 39.808594 L 58.125 39.808594 Z M 90.433594 41.234375 C 88.757812 39.933594 86.597656 39.277344 84.019531 39.277344 C 80.957031 39.277344 78.402344 40.214844 76.625 41.992188 C 74.769531 43.847656 73.785156 46.585938 73.785156 49.902344 C 73.785156 53.445312 74.824219 56.4375 76.710938 58.320312 C 78.191406 59.800781 80.164062 60.582031 82.421875 60.582031 C 87.375 60.582031 88.515625 57.613281 88.515625 57.613281 L 88.515625 60.050781 L 92.988281 60.050781 L 92.988281 48.617188 L 84.082031 48.617188 L 84.082031 52.195312 L 88.183594 52.195312 C 88.183594 52.195312 88.222656 56.699219 83.992188 56.699219 C 82.917969 56.699219 81.957031 56.308594 81.222656 55.570312 C 80.074219 54.425781 79.464844 52.492188 79.464844 49.984375 C 79.464844 45.835938 81.117188 43.355469 83.878906 43.355469 C 85.605469 43.355469 86.902344 44.417969 87.234375 46.023438 L 92.933594 46.023438 C 92.636719 43.691406 91.996094 42.472656 90.433594 41.234375 Z M 90.433594 41.234375 "/>
</g>
</svg>
