<?xml version="1.0" encoding="UTF-8"?>
<svg xmlns="http://www.w3.org/2000/svg" xmlns:xlink="http://www.w3.org/1999/xlink" width="100px" height="80px" viewBox="0 0 99 80" version="1.1">
<g id="surface1">
<path style=" stroke:none;fill-rule:nonzero;fill:rgb(0%,0%,0%);fill-opacity:1;" d="M 49.855469 39.132812 L 49.855469 46.179688 L 51.605469 46.179688 L 51.597656 39.140625 L 51.585938 32.105469 L 50.722656 32.09375 L 49.855469 32.089844 Z M 49.855469 39.132812 "/>
<path style=" stroke:none;fill-rule:nonzero;fill:rgb(0%,0%,0%);fill-opacity:1;" d="M 30.277344 35.148438 C 29.410156 35.238281 28.550781 35.550781 27.832031 36.03125 C 27.394531 36.324219 26.742188 36.988281 26.449219 37.441406 C 25.75 38.507812 25.425781 39.804688 25.515625 41.1875 C 25.65625 43.285156 26.6875 44.9375 28.367188 45.773438 C 29.894531 46.53125 31.949219 46.53125 33.464844 45.765625 C 34.269531 45.359375 35.039062 44.640625 35.53125 43.828125 C 35.609375 43.703125 35.671875 43.582031 35.679688 43.566406 C 35.683594 43.550781 35.355469 43.324219 34.953125 43.058594 L 34.222656 42.585938 L 34.132812 42.726562 C 33.632812 43.542969 33.15625 44.019531 32.558594 44.324219 C 31.992188 44.609375 31.53125 44.699219 30.761719 44.675781 C 30.300781 44.664062 30.152344 44.640625 29.886719 44.570312 C 28.722656 44.246094 27.820312 43.375 27.433594 42.214844 C 27.34375 41.953125 27.230469 41.382812 27.230469 41.210938 C 27.230469 41.15625 27.460938 41.15625 31.585938 41.15625 L 35.9375 41.15625 L 35.9375 40.632812 C 35.9375 39.605469 35.757812 38.714844 35.378906 37.898438 C 34.964844 36.996094 34.222656 36.195312 33.367188 35.722656 C 32.484375 35.238281 31.375 35.03125 30.277344 35.148438 Z M 31.597656 36.832031 C 32.902344 37.09375 33.878906 38.101562 34.171875 39.480469 L 34.195312 39.59375 L 27.324219 39.59375 L 27.347656 39.464844 C 27.363281 39.394531 27.421875 39.214844 27.484375 39.0625 C 27.890625 38.070312 28.640625 37.335938 29.609375 36.976562 C 29.875 36.882812 30.292969 36.789062 30.59375 36.765625 C 30.828125 36.742188 31.324219 36.773438 31.597656 36.832031 Z M 31.597656 36.832031 "/>
<path style=" stroke:none;fill-rule:nonzero;fill:rgb(0%,0%,0%);fill-opacity:1;" d="M 75.292969 35.148438 C 74.382812 35.246094 73.417969 35.605469 72.714844 36.117188 C 72.335938 36.386719 71.804688 36.925781 71.535156 37.316406 C 70.78125 38.390625 70.410156 39.832031 70.523438 41.246094 C 70.597656 42.132812 70.765625 42.769531 71.125 43.496094 C 71.710938 44.699219 72.757812 45.621094 74.019531 46.042969 C 75.445312 46.523438 77.203125 46.410156 78.503906 45.753906 C 79.292969 45.351562 80.136719 44.542969 80.582031 43.753906 C 80.675781 43.589844 80.683594 43.550781 80.648438 43.515625 C 80.621094 43.492188 80.292969 43.269531 79.910156 43.027344 L 79.226562 42.582031 L 79.160156 42.691406 C 78.457031 43.863281 77.695312 44.445312 76.621094 44.636719 C 76.257812 44.699219 75.5625 44.699219 75.195312 44.636719 C 74.5 44.511719 73.875 44.1875 73.347656 43.675781 C 72.75 43.089844 72.34375 42.234375 72.261719 41.398438 L 72.234375 41.15625 L 80.953125 41.15625 L 80.953125 40.714844 C 80.953125 38.363281 79.996094 36.5625 78.273438 35.675781 C 77.371094 35.210938 76.367188 35.03125 75.292969 35.148438 Z M 76.242188 36.773438 C 77.625 36.921875 78.65625 37.777344 79.085938 39.144531 C 79.132812 39.300781 79.171875 39.464844 79.171875 39.511719 L 79.171875 39.59375 L 75.742188 39.59375 C 73.855469 39.59375 72.3125 39.585938 72.3125 39.578125 C 72.3125 39.570312 72.355469 39.445312 72.402344 39.300781 C 72.597656 38.714844 72.898438 38.226562 73.332031 37.804688 C 73.949219 37.199219 74.664062 36.863281 75.507812 36.773438 C 75.878906 36.738281 75.878906 36.738281 76.242188 36.773438 Z M 76.242188 36.773438 "/>
<path style=" stroke:none;fill-rule:nonzero;fill:rgb(0%,0%,0%);fill-opacity:1;" d="M 42.070312 35.179688 C 39.773438 35.402344 37.9375 36.972656 37.371094 39.191406 C 37.214844 39.792969 37.171875 40.21875 37.191406 40.949219 C 37.214844 41.960938 37.355469 42.566406 37.765625 43.414062 C 38.097656 44.089844 38.511719 44.632812 39.046875 45.089844 C 39.886719 45.808594 40.855469 46.222656 42.023438 46.351562 C 42.46875 46.402344 43.144531 46.375 43.585938 46.296875 C 44.308594 46.171875 45.132812 45.832031 45.679688 45.433594 L 45.957031 45.234375 L 45.957031 46.214844 L 47.671875 46.214844 L 47.664062 40.769531 L 47.65625 35.332031 L 46.808594 35.320312 L 45.960938 35.3125 L 45.949219 35.804688 L 45.941406 36.300781 L 45.753906 36.164062 C 45.332031 35.84375 44.707031 35.535156 44.136719 35.367188 C 43.53125 35.191406 42.707031 35.117188 42.070312 35.179688 Z M 43.554688 37.027344 C 45.039062 37.417969 45.976562 38.632812 46.132812 40.347656 C 46.316406 42.382812 45.300781 44.042969 43.59375 44.5 C 42.515625 44.789062 41.421875 44.621094 40.542969 44.035156 C 39.507812 43.347656 38.898438 42.136719 38.898438 40.78125 C 38.898438 38.84375 40.105469 37.300781 41.878906 36.960938 C 42.300781 36.882812 43.125 36.914062 43.554688 37.027344 Z M 43.554688 37.027344 "/>
<path style=" stroke:none;fill-rule:nonzero;fill:rgb(0%,0%,0%);fill-opacity:1;" d="M 57.933594 35.179688 C 57.070312 35.269531 56.367188 35.570312 55.75 36.117188 L 55.539062 36.304688 L 55.539062 35.3125 L 53.789062 35.3125 L 53.789062 46.179688 L 55.539062 46.179688 L 55.539062 42.535156 C 55.539062 38.550781 55.53125 38.683594 55.734375 38.269531 C 56.089844 37.550781 56.707031 37.066406 57.515625 36.871094 C 57.929688 36.769531 58.535156 36.792969 58.917969 36.921875 C 59.851562 37.246094 60.402344 38.035156 60.511719 39.210938 C 60.535156 39.429688 60.546875 40.910156 60.546875 42.875 L 60.546875 46.179688 L 62.257812 46.179688 L 62.269531 42.519531 C 62.277344 38.890625 62.277344 38.859375 62.351562 38.605469 C 62.597656 37.726562 63.152344 37.148438 63.984375 36.90625 C 64.339844 36.804688 65.082031 36.777344 65.441406 36.859375 C 66.246094 37.035156 66.863281 37.59375 67.140625 38.394531 C 67.324219 38.929688 67.316406 38.75 67.328125 42.605469 L 67.339844 46.179688 L 69.054688 46.179688 L 69.042969 42.46875 C 69.027344 38.429688 69.039062 38.636719 68.835938 37.910156 C 68.722656 37.519531 68.433594 36.921875 68.210938 36.625 C 67.648438 35.878906 66.960938 35.449219 65.984375 35.242188 C 65.527344 35.144531 64.710938 35.136719 64.246094 35.230469 C 63.402344 35.390625 62.683594 35.753906 62.105469 36.304688 C 61.972656 36.433594 61.804688 36.613281 61.738281 36.707031 L 61.613281 36.871094 L 61.421875 36.609375 C 60.640625 35.546875 59.378906 35.027344 57.933594 35.179688 Z M 57.933594 35.179688 "/>
<path style=" stroke:none;fill-rule:nonzero;fill:rgb(0%,0%,0%);fill-opacity:1;" d="M 18.226562 40.753906 L 18.238281 46.195312 L 19.953125 46.195312 L 19.96875 36.945312 L 24.878906 36.945312 L 24.878906 35.3125 L 18.222656 35.3125 Z M 18.226562 40.753906 "/>
</g>
</svg>
